PathFileType	4	(X/Y/Z)	D:\TRACE\spot_10-12-23\spot_arm_body_motion_3_10-v60.trc
DataRate	CameraRate	NumFrames	NumMarkers	Units	OrigDataRate	OrigDataStartFrame	OrigNumFrames
100.00	100.00	      17	9	mm	100.00	3501	      7000
Frame#	Time	front left toe			Front right toe			aft left toe			aft right toe			Arm			FL body			FR body			AL Body			AR Body			
		X1	Y1	Z1	X2	Y2	Z2	X3	Y3	Z3	X4	Y4	Z4	X5	Y5	Z5	X6	Y6	Z6	X7	Y7	Z7	X8	Y8	Z8	X9	Y9	Z9	

3501	35.000	-225.78717	4.85616	-459.09946	167.65712	10.69973	-389.14740	-213.24783	16.87617	147.54855	154.69246	18.57647	225.41692	37.27032	780.72180	-771.12463	-114.53087	584.69653	-482.74921	37.86258	589.93774	-479.23422	-141.18884	570.52307	401.25146	9.33981	569.22180	407.37253	
3502	35.010	-225.67137	4.63414	-459.11850	171.58997	12.60271	-388.00037	-212.80840	16.92935	147.55254	154.97806	18.54423	225.19376	37.13194	780.58197	-770.96222	-115.12793	584.73322	-483.00690	36.92186	590.00604	-479.68607	-140.98341	570.88257	400.78058	9.57940	569.77771	406.95755	
3503	35.020	-226.05219	4.57363	-459.16028	171.70125	12.50341	-388.03848	-212.38039	16.97721	147.50159	155.52415	18.61007	225.21046	37.71146	780.38733	-770.82172	-116.04297	584.85492	-483.68927	36.12246	590.25214	-480.26791	-140.74965	571.10156	400.32477	10.13532	569.99927	406.58249	
3504	35.030	-225.71545	4.19538	-459.31271	171.19916	13.12752	-388.14453	-211.99532	17.09850	147.36061	156.24167	18.69433	225.30937	38.57985	780.26764	-770.47253	-116.54788	585.02289	-484.08600	35.64972	590.51550	-480.75485	-140.69955	571.44525	399.77026	10.05108	570.24213	405.86896	
3505	35.040	-225.38962	4.05928	-459.31656	172.24091	12.26410	-388.26706	-211.73708	17.18576	147.32085	156.77562	18.95142	225.25008	39.30874	780.28809	-770.23120	-116.84760	585.09412	-484.39810	35.31050	590.73511	-481.56378	-140.46552	571.80896	399.45865	9.69644	570.73065	405.16858	
3506	35.050	-225.05426	3.99678	-459.42102	170.90263	11.56898	-389.26828	-211.40263	17.14380	147.26363	157.02446	18.95015	225.17570	39.81478	780.25043	-770.24103	-117.09087	585.45215	-484.82471	35.00127	590.97363	-481.85031	-140.67102	572.01886	399.13089	9.70199	571.15710	404.85278	
3507	35.060	-224.52155	3.82647	-459.54706	171.98267	11.53235	-388.82172	-210.97464	17.01565	147.15860	157.26051	18.99936	225.05481	40.43098	780.13483	-770.20111	-117.10313	585.79913	-485.36926	34.97146	591.55676	-482.52274	-140.94113	572.31104	398.38943	9.51916	571.55017	404.48392	
3508	35.070	-223.95052	3.53722	-459.74084	172.25659	11.12006	-389.31076	-210.60649	16.93397	147.03340	157.51814	19.19969	224.94382	41.14457	780.06970	-770.24347	-116.78062	585.92474	-485.82367	35.66500	591.28900	-482.03918	-141.22644	572.55121	398.09988	9.08371	571.64288	403.84335	
3509	35.080	-223.35301	3.19729	-459.96024	172.79860	10.85979	-389.45804	-210.07651	16.71779	146.83261	157.82434	19.38973	224.87766	41.25819	780.03174	-770.15588	-116.47889	586.21460	-486.38486	35.80770	592.03711	-483.17914	-141.59059	572.70026	397.63815	8.60918	571.87769	403.38986	
3510	35.090	-222.84938	3.02991	-460.16953	173.15727	10.65633	-389.52686	-209.74405	16.76312	146.67004	158.28351	19.59898	224.84814	41.41566	780.04749	-770.21027	-115.76080	586.46893	-486.76404	36.20496	592.18536	-483.26645	-142.00383	572.95172	397.10818	8.43623	572.08844	403.10333	
3511	35.100	-222.32393	3.02725	-460.26422	173.58099	10.90827	-389.60126	-209.32634	16.95000	146.61951	158.81079	19.76896	224.79179	41.41863	780.08533	-770.33295	-115.30901	586.82410	-487.28323	36.72255	592.62109	-483.53052	-142.38306	573.17004	396.66779	8.16485	572.28748	402.92850	
3512	35.110	-221.84596	2.95380	-460.45840	172.45634	8.72530	-389.83148	-208.96562	17.09387	146.41327	159.14824	19.88237	224.72809	41.19419	780.16766	-770.52911	-114.48790	587.25525	-487.57617	37.32646	593.12885	-484.36218	-142.57764	573.45148	396.15775	7.77962	572.54480	402.73102	
3513	35.120	-221.32169	2.70800	-460.65356	172.89108	8.54697	-389.95041	-208.59547	17.09748	146.36325	159.56972	20.16007	224.54692	40.47587	780.45459	-770.75800	-113.71529	586.97766	-487.98547	38.44021	592.26648	-484.17215	-142.57698	574.22192	395.74792	7.55763	573.13525	402.33173	
3514	35.130	-220.20140	1.93559	-460.73392	173.73395	8.35472	-389.81885	-207.85162	16.93750	145.99966	159.92702	20.40643	224.58432	39.22062	781.30176	-771.26709	-112.70733	586.23022	-488.56787	39.44537	591.23804	-484.37573	-142.93475	575.31659	395.23413	7.51102	573.91309	402.00632	
3515	35.140	-220.10695	1.84832	-460.97589	174.49629	7.78507	-389.92114	-207.63528	17.19976	145.83122	160.18686	20.58637	224.49182	37.80698	782.53186	-771.20087	-111.59640	585.37158	-488.95844	40.76543	590.03094	-484.59436	-142.65253	576.18793	394.76407	7.76647	574.56946	402.11395	
3516	35.150	-219.44727	1.57165	-461.17188	174.93300	7.39588	-389.86334	-207.15326	17.16582	145.73993	160.56854	20.52028	224.29457	34.96563	784.15674	-770.34717	-110.46851	584.76349	-489.27286	41.43920	589.96625	-485.25980	-142.12291	576.58539	394.43948	8.05448	574.90619	401.82535	
3517	35.160	-218.96941	1.36319	-461.25162	175.57208	7.24735	-390.00290	-206.74429	17.14216	145.79807	161.14154	20.58775	224.23056	32.48747	785.83435	-769.77161	-109.53661	584.42731	-489.54239	42.62719	589.31549	-485.10294	-141.63243	576.61194	394.28088	8.42057	574.95221	401.29520	
